<?xml version="1.0" encoding="UTF-8"?>
<svg id="Layer_1" data-name="Layer 1" xmlns="http://www.w3.org/2000/svg" viewBox="0 0 998.23 1015.12">
  <defs>
    <style>
      .cls-1 {
        fill: #fb6705;
        letter-spacing: 0em;
      }

      .cls-2 {
        fill: none;
        stroke-linecap: round;
      }

      .cls-2, .cls-3 {
        stroke: #000;
        stroke-miterlimit: 10;
        stroke-width: 20px;
      }

      .cls-4 {
        letter-spacing: 0em;
      }

      .cls-5 {
        fill: #5bb225;
      }

      .cls-3 {
        fill: #fd0101;
      }

      .cls-6 {
        fill: #fbc911;
      }

      .cls-7 {
        font-family: Roboto-Bold, Roboto;
        font-size: 174.08px;
        font-weight: 700;
      }
    </style>
  </defs>
  <path class="cls-3" d="m837.56,348.45c0-186.92-151.53-338.45-338.45-338.45S160.67,161.53,160.67,348.45c0,143.97,676.89,143.97,676.89,0Z"/>
  <g>
    <g>
      <g>
        <path class="cls-5" d="m204.35,282.88l-126.68,148.39v250.93h253.35v-250.93l-126.67-148.39Zm33.07,295.59h-66.17v-66.17h66.17v66.17Z"/>
        <path class="cls-6" d="m498.66,283.02l-126.68,148.38v250.93h253.37v-250.93l-126.68-148.38Zm33.09,295.59h-66.17v-66.17h66.17v66.17Z"/>
        <path class="cls-5" d="m792.99,283.02l-126.69,148.38v250.93h253.35v-250.93l-126.67-148.38Zm33.07,295.59h-66.17v-66.17h66.17v66.17Z"/>
      </g>
      <path d="m786.96,227.11l-134.19,157.17c-3.41,3.99-9.57,3.99-12.98,0l-134.19-157.17c-3.41-3.99-9.57-3.99-12.98,0l-134.13,157.1c-3.41,3.99-9.57,3.99-12.98,0l-134.22-157.24c-3.41-3.99-9.57-3.99-12.98,0L39.2,413.34c-1.32,1.54-2.04,3.51-2.04,5.54v295.31c0,4.71,3.82,8.53,8.53,8.53h285.78v.12h621.07c4.71,0,8.53-3.82,8.53-8.53v-295.31c0-2.03-.72-4-2.04-5.54l-159.09-186.36c-3.41-3.99-9.57-3.99-12.98,0Zm-455.48,454.66H78.12v-250.93l126.68-148.39,126.67,148.39v250.93Zm294.33.12h-253.37v-250.93l126.68-148.38,126.68,148.38v250.93Zm294.31,0h-253.35v-250.93l126.69-148.38,126.67,148.38v250.93Z"/>
      <g>
        <path d="m841.22,471.05h-95.56c-14.51,0-26.27,11.76-26.27,26.27v95.56c0,14.51,11.76,26.27,26.27,26.27h95.56c14.51,0,26.27-11.76,26.27-26.27v-95.56c0-14.51-11.76-26.27-26.27-26.27Zm-14.69,107.13h-66.17v-66.17h66.17v66.17Z"/>
        <path d="m546.89,471.05h-95.54c-14.51,0-26.27,11.76-26.27,26.27v95.56c0,14.51,11.76,26.27,26.27,26.27h95.54c14.51,0,26.28-11.76,26.28-26.27v-95.56c0-14.51-11.78-26.27-26.28-26.27Zm-14.68,107.13h-66.17v-66.17h66.17v66.17Z"/>
        <path d="m252.57,470.91h-95.56c-14.51,0-26.27,11.76-26.27,26.28v95.54c0,14.51,11.76,26.27,26.27,26.27h95.56c14.51,0,26.27-11.76,26.27-26.27v-95.54c0-14.52-11.76-26.28-26.27-26.28Zm-14.69,107.13h-66.17v-66.17h66.17v66.17Z"/>
      </g>
    </g>
    <line class="cls-2" x1="10" y1="776.6" x2="988.23" y2="778.07"/>
  </g>
  <text class="cls-7" transform="translate(17.77 967.94)"><tspan class="cls-5" x="0" y="0">ECO</tspan><tspan class="cls-4" x="332.01" y="0"> </tspan><tspan class="cls-1" x="375.36" y="0">BRICKS</tspan></text>
</svg>