<svg id="Layer_1" data-name="Layer 1" xmlns="http://www.w3.org/2000/svg" viewBox="0 0 1080 402.58"><defs><style>.cls-1{fill:#d97b4e}.cls-2{fill:#9e512e}</style></defs><path class="cls-2" d="M223.51 335.77h63.32v63.32h-63.32zM223.51 256.25h63.32v63.32h-63.32zM223.51 176.73h63.32v63.32h-63.32zM223.51 97.21h63.32v63.32h-63.32z"/><path class="cls-1" d="M207.3 399.09 0 301.88v-63.32l207.3 97.21v63.32zM207.3 240.05 0 142.84V79.52l207.3 97.21v63.32zM207.3 160.53l-95.55-44.81V52.4l95.55 44.81v63.32zM95.55 108.12 0 63.32V0l95.55 44.81v63.31zM207.3 319.57l-95.55-44.81v-63.31l95.55 44.8v63.32zM95.55 267.17 0 222.36v-63.32l95.55 44.81v63.32z"/><path d="M405.55 182.43h-64.81v26.68h72.34l-4.65 30.9H300.61V97.73h107.68v30.9h-67.56v22.91h64.81v30.9ZM563.1 193.21c-5.21 29.75-27.05 49.45-66.09 49.45-46.6 0-69.11-31.45-69.11-72.74s22.25-74.83 71.13-74.83c41.81 0 60.85 24.31 63.65 48.94H521.3c-1.9-10.28-7.83-19.64-23.23-19.64-20.27 0-27.18 19.24-27.18 44.08 0 22.56 5.76 44.83 27.64 44.83 16.58 0 21.21-12.04 22.99-20.08h41.58ZM723.08 168.75c0 40.25-24.24 73.91-72.98 73.91s-70.98-33.45-70.98-73.71 25.37-73.86 73.12-73.86c44.84 0 70.84 31.1 70.84 73.66Zm-100.97-.42c0 26.12 8.68 44.3 29.3 44.3 21.68 0 28.82-19.29 28.82-43.53 0-25.96-7.58-43.97-29.37-43.97-20.25 0-28.76 16.72-28.76 43.2ZM300.32 256.31h71.46c34.63 0 49.9 17.16 49.9 37.34 0 15.32-8.05 26.26-19.55 30.99 10.76 3.83 23.51 13.9 23.51 32.46 0 23.54-17.58 42.79-53.4 42.79h-71.92V256.3Zm64.32 55.37c11.59 0 16.26-5.96 16.26-13.74 0-8.91-6.47-13.28-16.58-13.28h-23.17v27.02h23.48Zm-23.48 59.96h21.51c13.84 0 19.71-6.01 19.71-16.29 0-9.02-5.56-15.4-18.94-15.4h-22.28v31.69ZM487.12 345.65v54.26h-40.85V256.32h71.15c33.82 0 50.18 18.1 50.18 39.76 0 19.83-11.6 29.97-21.55 34.06 9.05 3.16 18.72 12.74 18.72 37.06v5.98c0 8.93.28 20.52 1.87 26.74h-40.1c-2.43-6.18-3.06-16.6-3.06-31.35v-3.71c0-12.4-2.96-19.2-21.52-19.2h-14.83Zm0-29.32h19.47c14.02 0 19.12-5.83 19.12-15.49s-6.06-15.2-18.92-15.2h-19.66v30.69ZM632.96 256.31V399.9h-42.2V256.31h42.2ZM792.71 352.67c-5.26 30.02-27.3 49.9-66.7 49.9-47.03 0-69.75-31.74-69.75-73.41s22.46-75.52 71.79-75.52c42.2 0 61.42 24.53 64.24 49.39h-41.76c-1.92-10.37-7.91-19.82-23.45-19.82-20.45 0-27.43 19.41-27.43 44.48 0 22.77 5.81 45.25 27.9 45.25 16.73 0 21.41-12.15 23.2-20.26h41.97ZM812.82 256.31h41.78v58.3c9.39-13.1 30.6-39.39 44.76-58.3h49.83l-52.76 58.84 54.56 84.76h-49.31l-34.39-57.59-12.7 13.09v44.5h-41.78V256.32ZM994.05 356.42c2.4 12.52 11.16 17.78 24.75 17.78 12.73 0 18.6-4.46 18.6-12.79 0-9.44-6.37-13.01-29.05-18.43-42.36-10.26-50.81-25.72-50.81-45.05 0-24.1 17.71-44.28 57.67-44.28s58.52 21.08 60.53 43.73h-40.65c-1.1-7.7-5.05-15.55-19.98-15.55-9.64 0-15.55 3.63-15.55 11.41s5.26 10.8 27.4 16.24c44.25 11.04 53.04 26.99 53.04 47.41 0 26.97-20.8 45.71-62.96 45.71-39.71 0-60.75-18.54-63.93-46.16h40.94Z"/></svg>
